<svg xmlns="http://www.w3.org/2000/svg" viewBox="0 0 87.77 21.28"><defs><style>.cls-1{stroke:#000;stroke-miterlimit:10;}</style></defs><title>Risorsa 1</title><g id="Livello_2" data-name="Livello 2"><g id="Livello_1-2" data-name="Livello 1"><path class="cls-1" d="M.5,2.07H6.26c3.74,0,6.43,1.35,6.43,5.17,0,3.67-2.69,5.44-6.43,5.44H2.84v7.77H.5Zm5.42,8.71c2.86,0,4.43-1.15,4.43-3.54S8.78,4,5.92,4H2.84v6.81ZM5.79,12l1.84-1.21,5.6,9.62H10.58Z"/><path class="cls-1" d="M14.94,13.66c0-4.43,3-7.16,6.11-7.16,3.47,0,5.43,2.49,5.43,6.39a8.13,8.13,0,0,1-.1,1.31H17.21c.17,2.88,1.93,4.75,4.52,4.75a5.93,5.93,0,0,0,3.39-1.09L26,19.37a8,8,0,0,1-4.5,1.41C17.82,20.78,14.94,18.13,14.94,13.66Zm9.51-1.11c0-2.73-1.23-4.21-3.36-4.21-1.91,0-3.62,1.53-3.9,4.21Z"/><path class="cls-1" d="M28,6.84h2.38L33,14.57c.41,1.33.85,2.71,1.26,4h.11c.41-1.3.85-2.68,1.26-4l2.57-7.73H40.4L35.59,20.45H32.91Z"/><path class="cls-1" d="M41.91,13.66c0-4.54,3-7.16,6.31-7.16s6.31,2.62,6.31,7.16-3,7.12-6.31,7.12S41.91,18.17,41.91,13.66Zm10.24,0c0-3.12-1.59-5.24-3.93-5.24s-3.93,2.12-3.93,5.24,1.59,5.21,3.93,5.21S52.15,16.78,52.15,13.66Z"/><path class="cls-1" d="M58,17.71V.5h2.3V17.88c0,.71.31,1,.64,1a1.87,1.87,0,0,0,.51-.06l.31,1.76a3.68,3.68,0,0,1-1.33.21C58.71,20.78,58,19.68,58,17.71Z"/><path class="cls-1" d="M65,15.46V6.84h2.3v8.32c0,2.54.76,3.62,2.57,3.62,1.39,0,2.35-.69,3.64-2.29V6.84h2.3V20.45h-1.9l-.19-2.13H73.6a5.79,5.79,0,0,1-4.49,2.46C66.24,20.78,65,18.93,65,15.46Z"/><path class="cls-1" d="M80.77,16.24V8.71h-2V7l2.12-.13L81.15,3h1.92V6.84h3.69V8.71H83.07v7.57c0,1.66.54,2.63,2.11,2.63a4.4,4.4,0,0,0,1.55-.37l.44,1.74a8.12,8.12,0,0,1-2.52.5C81.75,20.78,80.77,19,80.77,16.24Z"/></g></g></svg>